<svg width="30" height="30" viewBox="0 0 30 30" fill="none" xmlns="http://www.w3.org/2000/svg">
<path d="M10.8059 8.18203L17.318 12.2772L26.9892 6.39155V3.06133C26.9892 2.40064 26.6112 1.79771 26.0168 1.51315C25.4223 1.22718 24.7183 1.30888 24.2025 1.72305C22.0623 3.44732 18.2104 3.44732 16.0743 1.72305C15.4476 1.21732 14.5538 1.21732 13.927 1.72305C11.7882 3.44732 7.93488 3.44591 5.79884 1.72305C5.2831 1.30888 4.57624 1.22718 3.98461 1.51315C3.39017 1.79771 3.01074 2.40064 3.01074 3.06133V12.8491L10.8045 8.18203H10.8059Z" fill="#4318FF"/>
<path d="M3.70996 20.4233C5.22881 24.1002 9.02803 27.0508 14.5009 28.6429C14.6572 28.688 14.8191 28.7105 14.9809 28.7105C15.1428 28.7105 15.3033 28.688 15.4595 28.6429C22.6793 26.5426 26.9895 22.0802 26.9895 16.7013V14.1406L17.281 20.0305L10.9283 16.1058" fill="#4318FF"/>
</svg>
