<svg width="1136" height="231" viewBox="0 0 1136 231" fill="none" xmlns="http://www.w3.org/2000/svg">
<path d="M1128.75 121.851C1124.79 117.047 1120 113.467 1114.48 111.206C1109.08 108.983 1102.14 106.817 1093.84 104.745C1085.79 102.691 1079.78 100.694 1076.01 98.8101C1072.44 96.8885 1070.7 94.2512 1070.7 90.7283C1070.7 87.5821 1071.93 85.1895 1074.43 83.4375C1077.16 81.6101 1081.1 80.6867 1086.13 80.6867C1091.54 80.6867 1095.87 82.0055 1099.04 84.643C1102.3 87.1298 1104.09 90.4266 1104.46 94.7597L1104.54 95.6074H1134.17L1134.1 94.5903C1133.25 82.7781 1128.61 73.2829 1120.29 66.3689C1112 59.3419 1100.77 55.7812 1086.94 55.7812C1077.6 55.7812 1069.31 57.3449 1062.3 60.4157C1055.4 63.5053 1049.98 67.8007 1046.15 73.1699C1042.46 78.5579 1040.6 84.5865 1040.6 91.1049C1040.6 99.0362 1042.63 105.442 1046.63 110.17C1050.71 114.823 1055.57 118.328 1061.08 120.569C1066.61 122.792 1073.77 124.959 1082.33 127.031C1090.52 129.217 1096.51 131.289 1100.2 133.192C1103.75 134.831 1105.46 137.261 1105.46 140.633C1105.46 143.779 1104.03 146.323 1101.09 148.376C1098.23 150.449 1094.1 151.522 1088.79 151.522C1083.48 151.522 1078.75 150.128 1075.07 147.359C1071.57 144.627 1069.52 141.142 1069.01 136.997L1068.91 136.168H1037.87L1037.92 137.167C1038.34 144.363 1040.79 151.014 1045.16 156.948C1049.64 162.845 1055.76 167.611 1063.34 171.115C1070.89 174.469 1079.52 176.164 1089 176.164C1098.47 176.164 1106.35 174.676 1113.2 171.737C1120.25 168.647 1125.68 164.352 1129.35 158.983C1133.17 153.595 1135.11 147.415 1135.11 140.596C1134.98 132.796 1132.8 126.466 1128.69 121.775L1128.75 121.851Z" fill="white"/>
<path d="M1001.58 29.2734H970.478V57.6642H956.801V83.3798H970.478V137.769C970.478 162.053 983.138 174.355 1008.1 174.355H1027.28V148.017H1012.87C1008.7 148.017 1005.69 147.264 1003.99 145.813C1002.39 144.212 1001.58 141.574 1001.58 137.976V83.3798H1027.28V57.6642H1001.58V29.2734Z" fill="white"/>
<path d="M910.437 72.2643C906.707 67.856 901.959 64.1069 896.289 61.0927C889.827 57.5886 882.14 55.7988 873.456 55.7988C863.527 55.7988 854.371 58.2856 846.233 63.1838C838.245 68.082 831.783 75.1844 827.017 84.2838C822.42 93.3643 820.084 103.896 820.084 115.595C820.084 127.294 822.42 138.108 827.036 147.32C831.783 156.419 838.245 163.578 846.233 168.608C854.371 173.657 863.452 176.219 873.248 176.219C881.933 176.219 889.676 174.43 896.289 170.926C902.054 167.798 906.801 163.955 910.437 159.452V174.354H941.541V57.6639H910.437V72.2643ZM855.615 98.2437C858.422 93.3078 862.058 89.5211 866.447 86.9966C870.837 84.4722 875.697 83.1911 880.897 83.1911C886.097 83.1911 891.014 84.5475 895.573 87.2227C900.094 89.7472 903.73 93.5339 906.405 98.4698C909.081 103.274 910.437 109.189 910.437 116.047C910.437 122.904 909.081 128.895 906.405 133.831C903.749 138.635 900.094 142.422 895.573 145.078C891.033 147.603 886.097 148.902 880.897 148.902C875.697 148.902 870.988 147.546 866.466 144.89C862.077 142.215 858.422 138.371 855.615 133.435C852.94 128.349 851.583 122.358 851.583 115.632C851.583 108.907 852.94 103.067 855.596 98.2814L855.615 98.2437Z" fill="white"/>
<path d="M784.931 29.2734H753.828V57.6642H740.15V83.3798H753.828V137.769C753.828 162.053 766.488 174.355 791.45 174.355H810.628V148.017H796.216C792.053 148.017 789.038 147.264 787.343 145.813C785.741 144.212 784.931 141.574 784.931 137.976V83.3798H810.628V57.6642H784.931V29.2734Z" fill="white"/>
<path d="M708.723 111.206C703.316 108.983 696.364 106.817 688.075 104.745C680.031 102.691 674.021 100.694 670.253 98.8101C666.674 96.8885 664.94 94.2512 664.94 90.7283C664.94 87.5633 666.165 85.1895 668.671 83.4375C671.402 81.6101 675.34 80.6867 680.37 80.6867C685.777 80.6867 690.11 82.0055 693.275 84.643C696.534 87.1298 698.324 90.4266 698.7 94.7597L698.776 95.6074H728.409L728.333 94.5903C727.486 82.7781 722.833 73.2829 714.525 66.3689C706.236 59.3419 695.008 55.7812 681.18 55.7812C671.835 55.7812 663.546 57.3449 656.538 60.4157C649.643 63.5053 644.217 67.8007 640.393 73.1699C636.7 78.5579 634.835 84.5865 634.835 91.1049C634.835 99.0362 636.87 105.442 640.864 110.17C644.952 114.823 649.812 118.328 655.312 120.569C660.852 122.792 668.011 124.959 676.564 127.031C684.759 129.217 690.75 131.289 694.443 133.192C697.984 134.831 699.698 137.261 699.698 140.633C699.698 143.779 698.267 146.323 695.328 148.376C692.465 150.449 688.339 151.522 683.026 151.522C677.713 151.522 672.984 150.128 669.31 147.359C665.806 144.627 663.753 141.142 663.245 136.997L663.151 136.168H632.104L632.159 137.167C632.573 144.363 635.023 151.014 639.393 156.948C643.877 162.845 650 167.611 657.573 171.115C665.128 174.469 673.756 176.164 683.232 176.164C692.708 176.164 700.584 174.676 707.442 171.737C714.488 168.647 719.912 164.352 723.586 158.983C727.41 153.595 729.352 147.415 729.352 140.596C729.201 132.796 727.034 126.466 722.927 121.775C718.97 116.971 714.186 113.392 708.666 111.15L708.723 111.206Z" fill="white"/>
<path d="M613.721 57.6641H582.824V174.354H613.721V57.6641Z" fill="white"/>
<path d="M598.479 10C593.147 10 588.588 11.7709 584.971 15.2373C581.486 18.5907 579.715 22.8484 579.715 27.935C579.715 33.0216 581.486 37.3358 584.99 40.8587C588.607 44.1933 593.147 45.8699 598.479 45.8699C603.81 45.8699 608.294 44.1744 611.779 40.8399C615.415 37.3546 617.243 33.0216 617.243 27.935C617.243 22.8484 615.396 18.5719 611.779 15.2561C608.294 11.7709 603.829 10 598.479 10Z" fill="white"/>
<path d="M527.324 72.1513C523.707 67.6864 519.016 63.9751 513.364 61.0927C506.77 57.5886 499.008 55.7988 490.323 55.7988C480.376 55.7988 471.22 58.2856 463.101 63.1838C455.113 68.082 448.651 75.1844 443.904 84.2838C439.307 93.3643 436.971 103.896 436.971 115.595C436.971 127.294 439.307 138.108 443.922 147.32C448.67 156.419 455.207 163.578 463.327 168.608C471.447 173.657 480.546 176.219 490.342 176.219C498.895 176.219 506.582 174.373 513.176 170.718C518.94 167.591 523.688 163.748 527.324 159.245V174.241C527.324 184.151 524.781 191.592 519.732 196.359C514.683 201.276 508.014 203.762 499.875 203.762C492.904 203.762 486.857 202.199 481.921 199.128C477.174 196.227 474.046 192.233 472.596 187.24L472.407 186.562H441.85L441.963 187.598C443.357 200.936 449.423 211.618 459.955 219.342C470.561 227.029 484.276 230.91 500.704 230.91C512.968 230.91 523.594 228.348 532.26 223.336C540.945 218.438 547.557 211.6 551.909 203.046C556.242 194.663 558.446 184.961 558.446 174.222V57.6451H527.343V72.1325L527.324 72.1513ZM468.489 115.595C468.489 108.888 469.845 103.029 472.502 98.2437C475.309 93.3078 478.945 89.5211 483.334 86.9966C487.724 84.4722 492.584 83.1911 497.784 83.1911C502.983 83.1911 507.901 84.5475 512.46 87.2227C516.981 89.7472 520.617 93.5339 523.292 98.4698C525.967 103.274 527.324 109.189 527.324 116.047C527.324 122.904 525.967 128.876 523.292 133.831C520.617 138.635 516.981 142.422 512.46 145.078C507.919 147.603 502.983 148.902 497.784 148.902C492.584 148.902 487.874 147.546 483.353 144.89C478.963 142.215 475.309 138.371 472.502 133.435C469.826 128.349 468.47 122.358 468.47 115.632L468.489 115.595Z" fill="white"/>
<path d="M419.73 57.6641H388.834V174.354H419.73V57.6641Z" fill="white"/>
<path d="M404.488 10C399.157 10 394.598 11.7709 390.981 15.2373C387.495 18.5907 385.725 22.8484 385.725 27.935C385.725 33.0216 387.495 37.3358 391 40.8587C394.617 44.1933 399.157 45.8699 404.488 45.8699C409.82 45.8699 414.304 44.1744 417.789 40.8399C421.425 37.3546 423.252 33.0216 423.252 27.935C423.252 22.8484 421.406 18.5719 417.789 15.2561C414.304 11.7709 409.82 10 404.488 10Z" fill="white"/>
<path d="M333.146 71.886C329.265 67.3645 324.291 63.672 318.338 60.8838C311.462 57.5116 304.152 55.8161 296.579 55.8161C286.651 55.8161 277.476 58.3028 269.356 63.2011C261.236 68.0993 254.699 75.2017 249.933 84.301C245.336 93.3815 243 103.913 243 115.612C243 127.311 245.336 138.125 249.952 147.337C254.699 156.437 261.236 163.595 269.356 168.626C277.476 173.674 286.575 176.237 296.372 176.237C305.057 176.237 312.799 174.447 319.393 170.943C325.026 167.947 329.623 164.085 333.146 159.451V174.372H364.457V19.1172H333.146V71.8671V71.886ZM278.531 98.2421C281.338 93.3062 284.974 89.5195 289.363 86.995C293.753 84.4706 298.613 83.1895 303.813 83.1895C309.013 83.1895 313.93 84.5459 318.489 87.2211C323.01 89.7456 326.646 93.5323 329.322 98.4682C331.997 103.272 333.353 109.188 333.353 116.045C333.353 122.903 331.997 128.894 329.322 133.829C326.646 138.633 323.01 142.42 318.489 145.076C313.949 147.601 309.013 148.901 303.813 148.901C298.613 148.901 293.904 147.544 289.382 144.888C284.993 142.213 281.338 138.37 278.531 133.434C275.856 128.347 274.499 122.356 274.499 115.631C274.499 108.905 275.856 103.084 278.531 98.2798V98.2421Z" fill="white"/>
<path d="M55.4692 48.5418L101.808 77.6113L170.627 35.832V12.1923C170.627 7.50239 167.937 3.22245 163.708 1.20248C159.478 -0.827488 154.468 -0.247496 150.798 2.69246C135.568 14.9323 108.158 14.9323 92.9586 2.69246C88.4987 -0.897487 82.1388 -0.897487 77.6788 2.69246C62.4591 14.9323 35.0395 14.9223 19.8397 2.69246C16.1698 -0.247496 11.1398 -0.827488 6.9299 1.20248C2.69996 3.22245 0 7.50239 0 12.1923V81.6713L55.4592 48.5418H55.4692Z" fill="white"/>
<path d="M5.25 136.131C16.0398 162.251 43.0294 183.211 81.9089 194.52C83.0188 194.84 84.1688 195 85.3188 195C86.4688 195 87.6088 194.84 88.7187 194.52C140.008 179.601 170.628 147.901 170.628 109.692V91.502L101.659 133.341L56.5292 105.462" fill="white"/>
</svg>
